<svg xmlns="http://www.w3.org/2000/svg" viewBox="0 0 857.61 111.71"><defs><style>.cls-1,.cls-2{fill:#fff;}.cls-2{stroke:#fff;stroke-miterlimit:10;}</style></defs><g id="Layer_2" data-name="Layer 2"><g id="Layer_1-2" data-name="Layer 1"><path class="cls-1" d="M37.3,103.39,9.68,28.8,2,27.85V17.47H36.17V27.85L28.44,29l16.88,50.7,1.3,4.72H47l1.24-4.61L65.09,29l-9-1.18V17.47H88.64V27.85l-7.79.95L54.94,103.39Z" transform="translate(-2.01 -16.23)"/><path class="cls-1" d="M122,104.63a31,31,0,0,1-16-4A27.81,27.81,0,0,1,95.45,89.46,34,34,0,0,1,91.7,73.29V70.93a38.31,38.31,0,0,1,3.54-16.84,28,28,0,0,1,10-11.57,26.92,26.92,0,0,1,15.25-4.16q8.69,0,14.58,3.42a22.1,22.1,0,0,1,9,9.86,36,36,0,0,1,3.07,15.58V76.6H109.58l-.11.35a19.1,19.1,0,0,0,2.09,7.47,12.75,12.75,0,0,0,4.93,5.13,15.08,15.08,0,0,0,7.73,1.86A30.88,30.88,0,0,0,133,90.2a33.39,33.39,0,0,0,8-3.57l4.66,10.62a33.19,33.19,0,0,1-9.94,5.29A41.68,41.68,0,0,1,122,104.63ZM109.7,65.21H131V63.67A19.35,19.35,0,0,0,130,57a8.7,8.7,0,0,0-3.3-4.34,10.32,10.32,0,0,0-5.87-1.54A9.28,9.28,0,0,0,115,52.91a11.84,11.84,0,0,0-3.68,4.92,25.68,25.68,0,0,0-1.8,7.08Z" transform="translate(-2.01 -16.23)"/><path class="cls-1" d="M154.31,103.39V93.06l8.26-1.77V51.7l-9.14-1.78V39.54h25.2l.76,9.15a23.27,23.27,0,0,1,7.88-7.62A21,21,0,0,1,198,38.36q9.51,0,14.87,6.08t5.37,19.06V91.29l8.27,1.77v10.33H193.56V93.06l7.37-1.77V63.56q0-6.44-2.53-9.12c-1.7-1.79-4.21-2.69-7.56-2.69a12.85,12.85,0,0,0-6.46,1.57,13,13,0,0,0-4.57,4.45V91.29l7,1.77v10.33Z" transform="translate(-2.01 -16.23)"/><path class="cls-1" d="M255,104.63q-8.91,0-13.72-4.9t-4.81-15.52V51.64h-8.8V39.54h8.8V23.9h17.17V39.54h11.74v12.1H253.63V84.15q0,3.72,1.56,5.31a5.69,5.69,0,0,0,4.28,1.6,24.22,24.22,0,0,0,3.1-.21c1.08-.14,2-.28,2.8-.44l1.48,12.45a50.28,50.28,0,0,1-5.76,1.27A38.6,38.6,0,0,1,255,104.63Z" transform="translate(-2.01 -16.23)"/><path class="cls-1" d="M300.25,104.63q-10.1,0-15.85-6.4t-5.75-19.92V51.7l-7-1.78V39.54h24.26V78.43q0,6.84,2.39,9.82t7.23,3a14.72,14.72,0,0,0,6.78-1.5,12.78,12.78,0,0,0,4.84-4.28V51.7l-7.61-1.78V39.54h24.85V91.29L342,93.06v10.33H319.25l-1.18-8.08a20.78,20.78,0,0,1-7.56,6.9A21.53,21.53,0,0,1,300.25,104.63Z" transform="translate(-2.01 -16.23)"/><path class="cls-1" d="M349.58,103.39V93.06l8.26-1.77V51.7l-9.15-1.78V39.54h25.2l.65,7.91.12,1.41A20,20,0,0,1,380.5,41a13.33,13.33,0,0,1,8.32-2.65,24.68,24.68,0,0,1,3.37.26,25.4,25.4,0,0,1,3.24.68L393.6,55.18,385,54.71a10.14,10.14,0,0,0-5.93,1.23,13.67,13.67,0,0,0-4,4.08V91.29l8.26,1.77v10.33Z" transform="translate(-2.01 -16.23)"/><path class="cls-1" d="M429.83,104.63a30.89,30.89,0,0,1-16-4,27.81,27.81,0,0,1-10.59-11.13,34,34,0,0,1-3.75-16.17V70.93A38.31,38.31,0,0,1,403,54.09a28,28,0,0,1,10-11.57,27,27,0,0,1,15.26-4.16q8.67,0,14.57,3.42a22,22,0,0,1,9,9.86,35.86,35.86,0,0,1,3.07,15.58V76.6H417.38l-.12.35a19.28,19.28,0,0,0,2.1,7.47,12.75,12.75,0,0,0,4.93,5.13A15.08,15.08,0,0,0,432,91.41a31,31,0,0,0,8.82-1.21,33.32,33.32,0,0,0,8-3.57l4.67,10.62a33.13,33.13,0,0,1-9.95,5.29A41.6,41.6,0,0,1,429.83,104.63ZM417.5,65.21h21.3V63.67a19.36,19.36,0,0,0-1-6.69,8.7,8.7,0,0,0-3.3-4.34,10.36,10.36,0,0,0-5.88-1.54,9.25,9.25,0,0,0-5.78,1.81,12,12,0,0,0-3.69,4.92,26.41,26.41,0,0,0-1.8,7.08Z" transform="translate(-2.01 -16.23)"/><path class="cls-1" d="M531.8,104.63q-12.81,0-21.83-5.31a35.37,35.37,0,0,1-13.84-14.75,47.6,47.6,0,0,1-4.81-21.9v-3a51,51,0,0,1,4.78-22.66,36.67,36.67,0,0,1,13.54-15.31q8.76-5.52,20.75-5.52a58.24,58.24,0,0,1,17.4,2.54A40.38,40.38,0,0,1,562,26.38V45.44H549.21l-2.42-11.51a17,17,0,0,0-6.2-3.21,29.87,29.87,0,0,0-8.91-1.21,20.55,20.55,0,0,0-12.42,3.8,24,24,0,0,0-8,10.57,41.32,41.32,0,0,0-2.77,15.72v3.07a38.7,38.7,0,0,0,2.75,15.2,21.9,21.9,0,0,0,8,10,23,23,0,0,0,13,3.54,38.07,38.07,0,0,0,8.35-.85,27.63,27.63,0,0,0,6.29-2.1V73.88l-12.28-.94V60.84h29.57V95.6a47.76,47.76,0,0,1-13.78,6.55A63.74,63.74,0,0,1,531.8,104.63Z" transform="translate(-2.01 -16.23)"/><path class="cls-1" d="M574.46,103.39V93.06l8.27-1.77V51.7l-9.15-1.78V39.54h25.2l.65,7.91.12,1.41A20,20,0,0,1,605.39,41a13.31,13.31,0,0,1,8.32-2.65,24.55,24.55,0,0,1,3.36.26,25.58,25.58,0,0,1,3.25.68l-1.83,15.88-8.56-.47A10.13,10.13,0,0,0,604,55.94,13.67,13.67,0,0,0,600,60V91.29l8.26,1.77v10.33Z" transform="translate(-2.01 -16.23)"/><path class="cls-1" d="M654.6,104.63a30.69,30.69,0,0,1-16.23-4.13A27.05,27.05,0,0,1,628,89a38,38,0,0,1-3.6-16.91V70.87A37.77,37.77,0,0,1,628,54a27.31,27.31,0,0,1,10.35-11.51,33.56,33.56,0,0,1,32.37,0A27.37,27.37,0,0,1,681,54a37.75,37.75,0,0,1,3.6,16.87v1.24A38,38,0,0,1,681,89a27.13,27.13,0,0,1-10.33,11.48A30.2,30.2,0,0,1,654.6,104.63Zm0-13.22A10.9,10.9,0,0,0,661.92,89a14.18,14.18,0,0,0,4.19-6.76,34.1,34.1,0,0,0,1.36-10.12V70.87a33.69,33.69,0,0,0-1.36-10,14.28,14.28,0,0,0-4.22-6.78,12.28,12.28,0,0,0-14.72,0A13.91,13.91,0,0,0,643,60.87a34.06,34.06,0,0,0-1.33,10v1.24A34.79,34.79,0,0,0,643,82.26,13.53,13.53,0,0,0,647.17,89,11.27,11.27,0,0,0,654.6,91.41Z" transform="translate(-2.01 -16.23)"/><path class="cls-1" d="M719.28,104.63q-10.1,0-15.85-6.4t-5.75-19.92V51.7l-7-1.78V39.54h24.25V78.43q0,6.84,2.39,9.82t7.23,3a14.79,14.79,0,0,0,6.79-1.5,12.75,12.75,0,0,0,4.83-4.28V51.7l-7.61-1.78V39.54h24.85V91.29l7.67,1.77v10.33H738.28l-1.18-8.08a20.78,20.78,0,0,1-7.56,6.9A21.5,21.5,0,0,1,719.28,104.63Z" transform="translate(-2.01 -16.23)"/><path class="cls-1" d="M766.9,127.94V117.55l8.32-1.77V51.7L766,49.92V39.54h25l.83,7.43a20.33,20.33,0,0,1,6.85-6.37,19.33,19.33,0,0,1,9.56-2.24,21,21,0,0,1,13.21,4.22,26.39,26.39,0,0,1,8.41,11.77A48.76,48.76,0,0,1,832.81,72v1.23a42.85,42.85,0,0,1-2.92,16.5,24.62,24.62,0,0,1-8.44,11,22.37,22.37,0,0,1-13.3,3.92,20.89,20.89,0,0,1-9.06-1.86,18.23,18.23,0,0,1-6.7-5.46v18.47l8.32,1.77v10.39ZM803,91.41q6.62,0,9.59-4.9t3-13.28V72a37.15,37.15,0,0,0-1.35-10.6,15.37,15.37,0,0,0-4.17-7.08,10.17,10.17,0,0,0-7.16-2.57,12,12,0,0,0-6.23,1.6,11.44,11.44,0,0,0-4.28,4.54v28A10.62,10.62,0,0,0,796.67,90,13.33,13.33,0,0,0,803,91.41Z" transform="translate(-2.01 -16.23)"/><path class="cls-2" d="M851.83,104.63A6.94,6.94,0,0,1,849,104a7.15,7.15,0,0,1-2.32-1.64,8,8,0,0,1,0-10.92A7.12,7.12,0,0,1,849,89.85a7.13,7.13,0,0,1,5.68,0A7.23,7.23,0,0,1,857,91.48a7.69,7.69,0,0,1,1.57,2.44,8.4,8.4,0,0,1,0,6A7.73,7.73,0,0,1,857,102.4a7.41,7.41,0,0,1-2.33,1.64A6.9,6.9,0,0,1,851.83,104.63Zm0-1.28a5.77,5.77,0,0,0,2.34-.49,5.92,5.92,0,0,0,1.92-1.37,6.33,6.33,0,0,0,1.29-2,6.76,6.76,0,0,0,.47-2.52,6.67,6.67,0,0,0-.47-2.51,6.14,6.14,0,0,0-1.3-2A6,6,0,0,0,854.17,91a5.7,5.7,0,0,0-2.34-.48,5.78,5.78,0,0,0-2.35.48,6,6,0,0,0-1.93,1.35,6.44,6.44,0,0,0-1.29,2,6.67,6.67,0,0,0-.46,2.51,6.76,6.76,0,0,0,.46,2.52,6.53,6.53,0,0,0,1.3,2,5.92,5.92,0,0,0,1.92,1.37A5.83,5.83,0,0,0,851.84,103.35Zm-.15-1.83a3.29,3.29,0,0,1-2.61-1.09,4.15,4.15,0,0,1-1-2.88V96.33a4.17,4.17,0,0,1,1-2.88,3.3,3.3,0,0,1,2.61-1.1,3.67,3.67,0,0,1,2.52.82,2.92,2.92,0,0,1,.87,2.34l0,.07h-1.52a1.83,1.83,0,0,0-.47-1.4,1.89,1.89,0,0,0-1.38-.44,1.73,1.73,0,0,0-1.48.71,3.12,3.12,0,0,0-.51,1.87v1.23a3.15,3.15,0,0,0,.51,1.88,1.72,1.72,0,0,0,1.48.7,2,2,0,0,0,1.38-.43,1.85,1.85,0,0,0,.46-1.4h1.52l0,.06a2.87,2.87,0,0,1-.87,2.35A3.62,3.62,0,0,1,851.69,101.52Z" transform="translate(-2.01 -16.23)"/></g></g></svg>