<svg xmlns="http://www.w3.org/2000/svg" version="1.1" xmlns:xlink="http://www.w3.org/1999/xlink" xmlns:svgjs="http://svgjs.dev/svgjs" style="overflow: hidden; height: 85vh;" viewBox="0 0 1920 1080" class="overflow-hidden rounded-md drop-shadow-lg transition duration-300"><rect width="1920" height="1080" fill="#413156"/><g clip-path="url(&quot;#SvgjsClipPath2478&quot;)"><g transform="matrix(0.23909844444042233,-1.1248697408438766,1.1248697408438766,0.23909844444042233,123.03583328150114,1490.7617912122937)"><path d="M0,-1080C7.4326782448749995,-977.8078295887715,41.427454606837834,-682.9582964444743,44.59606946925,-466.8469775326286C47.76468433166216,-250.73565862078297,21.937368059362402,-7.630675746999259,19.011689174472963,216.667913471074C16.086010289583523,440.96650268914726,27.280136758758463,660.4998609894642,27.041996159913367,878.944557775811C26.80385556106827,1097.3892545621577,22.08984494138794,1313.8268538184561,17.58284558140238,1527.3360941891542C13.075846221416821,1740.8453345598523,2.9304742635670635,2054.5560156981924,0,2160L 1920 2160 L 1920 -1080 Z" fill="url(&quot;#SvgjsLinearGradient2467&quot;)"/><path d="M174.54545454545456,-1080C169.51348738827213,-939.2405723694336,141.86581741927446,-513.1264165552843,144.35365160235997,-235.44343421660176C146.84148578544549,42.23954812208075,188.74913210240072,323.40859631162743,189.47245964396768,586.0978940320949C190.19578718553464,848.7871917525624,151.18145103484719,1078.3753344448855,148.69361685176167,1340.692352106203C146.20578266867616,1603.0093697675206,170.23681492983908,2023.4487253510338,174.54545454545456,2160L 1920 2160 L 1920 -1080 Z" fill="url(&quot;#SvgjsLinearGradient2468&quot;)"/><path d="M349.0909090909091,-1080C349.7910290596326,-1007.6701753603398,359.8668729968623,-805.6730594198513,353.29162890325006,-646.0210521620389C346.7163848096378,-486.3690449042266,303.3314625826955,-277.57070469804046,309.63944452923573,-122.08795645312597C315.94742647577596,33.39479179178852,384.2282341310282,137.75253165307575,391.1395205824914,286.875437307448C398.0508070339546,435.9983429618203,355.62811748612,613.4955878761585,351.1071632380149,772.6494774731075C346.5862089899098,931.8033670700564,358.027029054265,1091.7783620830162,364.0137950938609,1241.7987748891417C370.0005611334568,1391.8191876952671,389.51490714274894,1519.7384167913835,387.0277594755903,1672.77195430986C384.54061180843166,1825.8054918283362,355.413717488356,2078.79532571831,349.0909090909091,2160L 1920 2160 L 1920 -1080 Z" fill="url(&quot;#SvgjsLinearGradient2469&quot;)"/><path d="M523.6363636363636,-1080C527.5492708823289,-964.0120601407257,541.7967264889178,-598.7353447378011,547.1138071121551,-384.07236084435414C552.4308877353924,-169.40937695090716,565.3701624929939,7.941070103572571,555.5388473757873,207.97790336068198C545.7075322585807,408.0147366177914,500.1598139349094,599.5999772860653,488.1259164089155,816.1486386983023C476.0920188829216,1032.6973001105393,477.4170543485826,1283.2946449504882,483.33546221982397,1507.2698718341044C489.2538700910653,1731.2450987177206,516.919546733607,2051.211645305684,523.6363636363636,2160L 1920 2160 L 1920 -1080 Z" fill="url(&quot;#SvgjsLinearGradient2470&quot;)"/><path d="M698.1818181818182,-1080C700.4391036455844,-972.8798359986728,706.1695249465972,-654.3208297153205,711.7255309644149,-437.2790159920367C717.2815369822326,-220.2372022687529,739.9678390452999,3.9762985406399878,731.5178542887247,222.2508823397028C723.0678695321495,440.52546613876564,673.4466610425984,650.6982834072868,661.025622424964,872.36848680234C648.6045838073296,1094.0386901973934,650.7989232901097,1337.6668505104124,656.9916225829187,1552.2721027100224C663.1843218757277,1766.8773549096325,691.3167855820017,2058.712017118337,698.1818181818182,2160L 1920 2160 L 1920 -1080 Z" fill="url(&quot;#SvgjsLinearGradient2471&quot;)"/><path d="M872.7272727272727,-1080C871.2367793716159,-976.6067138432279,868.7498056884847,-674.9903936422262,863.7843125933312,-459.6402830593677C858.8188194981776,-244.29017247650916,837.6162252032245,-5.8930060177742405,842.9343141563512,212.10066349715112C848.2524031094779,430.0943330120765,887.6605920608544,628.7099538610887,895.6928463120911,848.3217340301844C903.7251005633278,1067.9335141992801,894.9554352612413,1311.158300183423,891.1278396637715,1529.7713445117256C887.3002440663017,1748.3843888400281,875.7940338833558,2054.9618907519543,872.7272727272727,2160L 1920 2160 L 1920 -1080 Z" fill="url(&quot;#SvgjsLinearGradient2472&quot;)"/><path d="M1047.2727272727273,-1080C1039.512509188415,-1004.2836990317738,1003.8309227104527,-784.3671760492732,1000.7114187668539,-625.7021941906431C997.591914823255,-467.03721233201304,1017.8509487699234,-281.09838852461723,1028.5557036111345,-128.01010884821977C1039.2604584523456,25.07817082817772,1069.5040243532533,136.54989262699402,1064.93994781412,292.8274838677419C1060.3758712749866,449.1050751084897,998.2289772779329,657.096264441908,1001.1712443763344,809.6554385962675C1004.1135114747358,962.2146127506269,1078.9513220586168,1067.7235787289876,1082.5935504045283,1208.1825287938982C1086.2357787504397,1348.6414788588088,1028.9114183071038,1493.7728937847146,1023.0246144518035,1652.4091389857315C1017.1378105965033,1811.0453841867484,1043.2313751359065,2075.4015231642884,1047.2727272727273,2160L 1920 2160 L 1920 -1080 Z" fill="url(&quot;#SvgjsLinearGradient2473&quot;)"/><path d="M1221.8181818181818,-1080C1215.4188484165072,-1007.6606580237956,1180.56009556493,-778.0504854267425,1183.4221814081345,-645.9639481427733C1186.284267251339,-513.8774108588042,1228.46181461774,-422.2876156210149,1238.990696877409,-287.48077629618496C1249.519579137078,-152.673936971355,1257.317859834023,31.47053326717807,1246.595474966149,162.8770878062063C1235.8730900982748,294.2836423452345,1186.1158961252208,367.2570712561983,1174.656387670164,500.9585509379845C1163.196879215107,634.6600306197707,1174.8588818959677,816.8169076579917,1177.8384242358072,965.0859658969235C1180.8179665756468,1113.3550241358555,1178.1203563464403,1259.0296575044936,1192.5336417092017,1390.5729003715758C1206.946927071963,1522.116143238658,1259.4373797275457,1626.1075731613462,1264.3181364123757,1754.3454230994168C1269.1988930972057,1882.5832730374875,1228.9015075838806,2092.3909038499028,1221.8181818181818,2160L 1920 2160 L 1920 -1080 Z" fill="url(&quot;#SvgjsLinearGradient2474&quot;)"/><path d="M1396.3636363636365,-1080C1395.3751036855354,-946.7043159028526,1385.6909919931322,-553.0703543761645,1390.43244029503,-280.2258954171157C1395.1738885969276,-7.381436458066901,1416.173863977498,277.70109268444156,1424.8123261750222,557.0667537542927C1433.4507883725464,836.4324148241437,1447.0046617820726,1128.8125299610397,1442.263213480175,1395.968071001991C1437.5217651782773,1663.123612042942,1404.0135658830595,2032.6613451669984,1396.3636363636365,2160L 1920 2160 L 1920 -1080 Z" fill="url(&quot;#SvgjsLinearGradient2475&quot;)"/><path d="M1570.909090909091,-1080C1569.1005200613026,-981.8748748181185,1567.0408964328035,-679.3845891317354,1560.0576658223606,-491.24924890871125C1553.0744352119177,-303.1139086856871,1527.6180950441667,-126.39939090268092,1529.0097072464332,48.81204133814538C1530.4013194486997,224.02347357897168,1569.3446943544836,393.15670368942654,1568.407339035959,560.0193445362466C1567.4699837174344,726.8819853830668,1520.9500428681488,879.9284551490268,1523.3855753352852,1049.987886419066C1525.8211078024217,1220.047317689105,1575.0999479098095,1395.373913226326,1583.0205338387773,1580.3759321564817C1590.941119767745,1765.3779510866373,1572.9276647307054,2063.395988692747,1570.909090909091,2160L 1920 2160 L 1920 -1080 Z" fill="url(&quot;#SvgjsLinearGradient2476&quot;)"/><path d="M1745.4545454545455,-1080C1739.8456882721107,-1009.5720977829487,1715.9045784920968,-794.7346323668027,1711.8014023599364,-657.4325866976925C1707.698226227776,-520.1305410285823,1722.2851628186106,-395.6683956879956,1720.8354886615834,-256.18772598533883C1719.3858145045563,-116.70705628268206,1691.1757750458994,55.08491400597019,1703.1033574177739,179.45143151824817C1715.0309397896483,303.81794903052617,1781.2630403399849,367.5067608020377,1792.40098289283,490.011379088329C1803.538925445675,612.5159973746203,1777.2589569552988,769.3516881276903,1769.9310127348442,914.4791412359959C1762.6030685143896,1059.6065943443016,1751.3773466777625,1222.4587502628815,1748.4333175701017,1360.776097738163C1745.489288462441,1499.0934452134443,1752.7633001081394,1611.1792423773782,1752.2668380888801,1744.3832260876843C1751.7703760696209,1877.5872097979905,1746.5899275602678,2090.7305376812806,1745.4545454545455,2160L 1920 2160 L 1920 -1080 Z" fill="url(&quot;#SvgjsLinearGradient2477&quot;)"/></g></g><defs><linearGradient x1="0.1" y1="0" x2="0" y2="1" id="SvgjsLinearGradient2467"><stop stop-color="#413156" offset="0"/><stop stop-color="#3b3156" offset="0"/></linearGradient><linearGradient x1="0.1" y1="0" x2="0" y2="1" id="SvgjsLinearGradient2468"><stop stop-color="#3c2d4f" offset="0"/><stop stop-color="#362d4f" offset="0.09090909090909091"/></linearGradient><linearGradient x1="0.1" y1="0" x2="0" y2="1" id="SvgjsLinearGradient2469"><stop stop-color="#372949" offset="0"/><stop stop-color="#322949" offset="0.18181818181818182"/></linearGradient><linearGradient x1="0.1" y1="0" x2="0" y2="1" id="SvgjsLinearGradient2470"><stop stop-color="#322642" offset="0"/><stop stop-color="#2d2642" offset="0.2727272727272727"/></linearGradient><linearGradient x1="0.1" y1="0" x2="0" y2="1" id="SvgjsLinearGradient2471"><stop stop-color="#2d223b" offset="0"/><stop stop-color="#29223b" offset="0.36363636363636365"/></linearGradient><linearGradient x1="0.1" y1="0" x2="0" y2="1" id="SvgjsLinearGradient2472"><stop stop-color="#281e34" offset="0"/><stop stop-color="#241e34" offset="0.45454545454545453"/></linearGradient><linearGradient x1="0.1" y1="0" x2="0" y2="1" id="SvgjsLinearGradient2473"><stop stop-color="#231a2e" offset="0"/><stop stop-color="#201a2e" offset="0.5454545454545454"/></linearGradient><linearGradient x1="0.1" y1="0" x2="0" y2="1" id="SvgjsLinearGradient2474"><stop stop-color="#1d1627" offset="0"/><stop stop-color="#1a1627" offset="0.6363636363636364"/></linearGradient><linearGradient x1="0.1" y1="0" x2="0" y2="1" id="SvgjsLinearGradient2475"><stop stop-color="#181220" offset="0"/><stop stop-color="#161220" offset="0.7272727272727273"/></linearGradient><linearGradient x1="0.1" y1="0" x2="0" y2="1" id="SvgjsLinearGradient2476"><stop stop-color="#130f1a" offset="0"/><stop stop-color="#110f1a" offset="0.8181818181818182"/></linearGradient><linearGradient x1="0.1" y1="0" x2="0" y2="1" id="SvgjsLinearGradient2477"><stop stop-color="#0e0b13" offset="0"/><stop stop-color="#0d0b13" offset="0.9090909090909091"/></linearGradient><clipPath id="SvgjsClipPath2478"><rect width="1920" height="1080"/></clipPath></defs></svg>